<svg id="Camada_1" data-name="Camada 1" xmlns="http://www.w3.org/2000/svg" xmlns:xlink="http://www.w3.org/1999/xlink" viewBox="0 0 449 200">
  <defs>
    <linearGradient id="Gradiente_sem_nome_4" data-name="Gradiente sem nome 4" x1="39.5" y1="200" x2="39.5" gradientUnits="userSpaceOnUse">
      <stop offset="0" stop-color="#ff4e00"/>
      <stop offset="0.06" stop-color="#ff5604"/>
      <stop offset="0.28" stop-color="#ff710f"/>
      <stop offset="0.51" stop-color="#ff8417"/>
      <stop offset="0.75" stop-color="#ff8f1c"/>
      <stop offset="1" stop-color="#ff931e"/>
    </linearGradient>
    <linearGradient id="Gradiente_sem_nome_7" data-name="Gradiente sem nome 7" x1="397" y1="499.2" x2="482.26" y2="499.2" gradientUnits="userSpaceOnUse">
      <stop offset="0" stop-color="#ff4e00"/>
      <stop offset="0.1" stop-color="#ff5606"/>
      <stop offset="0.38" stop-color="#ff6913"/>
      <stop offset="0.68" stop-color="#ff741b"/>
      <stop offset="1" stop-color="#ff781e"/>
    </linearGradient>
    <linearGradient id="Gradiente_sem_nome_4-2" x1="38.5" y1="200" x2="38.5" y2="0" xlink:href="#Gradiente_sem_nome_4"/>
    <linearGradient id="Gradiente_sem_nome_7-2" x1="88" y1="86" x2="178" y2="86" xlink:href="#Gradiente_sem_nome_7"/>
    <linearGradient id="Gradiente_sem_nome_4-3" x1="598.28" y1="588.21" x2="757" y2="588.21" xlink:href="#Gradiente_sem_nome_4"/>
  </defs>
  <title>lzban copiar</title>
  <g>
    <path d="M1,0H1A77,77,0,0,1,78,77V200a0,0,0,0,1,0,0h0A77,77,0,0,1,1,123V0A0,0,0,0,1,1,0Z" style="fill: url(#Gradiente_sem_nome_4)"/>
    <path d="M89,142h58a0,0,0,0,1,0,0v0a58,58,0,0,1-58,58h0a0,0,0,0,1,0,0V142A0,0,0,0,1,89,142Z" style="fill: #f2f2f2"/>
    <path d="M482.26,509A58,58,0,0,1,429,544H397V494.6a40.6,40.6,0,0,1,35-40.21V509Z" transform="translate(-308 -413)" style="fill: url(#Gradiente_sem_nome_7)"/>
  </g>
  <g>
    <path d="M0,0H0A77,77,0,0,1,77,77V200a0,0,0,0,1,0,0h0A77,77,0,0,1,0,123V0A0,0,0,0,1,0,0Z" style="fill: url(#Gradiente_sem_nome_4-2)"/>
    <path d="M88,142h58a0,0,0,0,1,0,0v0a58,58,0,0,1-58,58h0a0,0,0,0,1,0,0V142A0,0,0,0,1,88,142Z" style="fill: #f2f2f2"/>
    <path d="M128.6,41H178a0,0,0,0,1,0,0V73a58,58,0,0,1-58,58H88a0,0,0,0,1,0,0V81.6A40.6,40.6,0,0,1,128.6,41Z" style="fill: url(#Gradiente_sem_nome_7-2)"/>
  </g>
  <g>
    <path d="M624.6,580.83l0,0a19.19,19.19,0,0,0-4.17-1.88,17.1,17.1,0,0,0-4.86-.7,16.63,16.63,0,0,0-8.71,2.38c-.42.25-.82.51-1.22.78V571a7.33,7.33,0,0,0-7.33-7.33h0v49h4.17a3.16,3.16,0,0,0,3.16-3.16h0c.39.26.78.52,1.19.75a16.52,16.52,0,0,0,8.74,2.41,16.35,16.35,0,0,0,4.73-.69,15.46,15.46,0,0,0,4.35-1.92,17.57,17.57,0,0,0,5.83-6.1,16.28,16.28,0,0,0,2.34-8.55,16.67,16.67,0,0,0-2.26-8.51A17.53,17.53,0,0,0,624.6,580.83Zm.8,14.65a9.36,9.36,0,0,1-2.95,7h0a9.36,9.36,0,0,1-6.93,2.9,9.69,9.69,0,0,1-7-2.9,9.47,9.47,0,0,1-2.9-7,9.62,9.62,0,0,1,2.9-7,9.51,9.51,0,0,1,7-2.9,9.37,9.37,0,0,1,6.94,2.89A9.6,9.6,0,0,1,625.4,595.48Z" transform="translate(-308 -413)" style="fill: url(#Gradiente_sem_nome_4-3)"/>
    <path d="M668.57,581.39c-.38-.27-.77-.52-1.18-.76a16.54,16.54,0,0,0-8.68-2.4,17,17,0,0,0-14.64,8.16,15.88,15.88,0,0,0-1.91,4.23,16.7,16.7,0,0,0-.7,4.86,16.52,16.52,0,0,0,.69,4.82,15.7,15.7,0,0,0,1.9,4.24,17.05,17.05,0,0,0,6.08,5.94,17.32,17.32,0,0,0,17.23-.07c.44-.26.86-.53,1.27-.82h0a3.15,3.15,0,0,0,3.15,3.15H676V585.62a7.39,7.39,0,0,0-7.4-7.39h0Zm-2.85,7.06a9.81,9.81,0,0,1,0,14h0a9.39,9.39,0,0,1-7,2.91,9.51,9.51,0,0,1-7-2.92,9.29,9.29,0,0,1-2.88-6.95,9.93,9.93,0,0,1,16.93-7Z" transform="translate(-308 -413)" style="fill: url(#Gradiente_sem_nome_4-3)"/>
    <path d="M711,580.84l0,0a18.34,18.34,0,0,0-4.23-1.88,16.89,16.89,0,0,0-4.8-.7,16.65,16.65,0,0,0-8.74,2.4c-.41.25-.8.51-1.19.78v-3.18h0a7.33,7.33,0,0,0-7.33,7.33V605.4a7.33,7.33,0,0,0,7.33,7.34h0V595.48a9.89,9.89,0,0,1,.74-3.77,10.18,10.18,0,0,1,2.16-3.19,9.78,9.78,0,0,1,3.28-2.17,9.29,9.29,0,0,1,7.52,0,10,10,0,0,1,3.19,2.16,9.89,9.89,0,0,1,2.17,3.22,9.2,9.2,0,0,1,.79,3.74v9.92a7.33,7.33,0,0,0,7.33,7.34h0V595.48a16.35,16.35,0,0,0-2.32-8.51A17.75,17.75,0,0,0,711,580.84Z" transform="translate(-308 -413)" style="fill: url(#Gradiente_sem_nome_4-3)"/>
    <path d="M742.52,592.49q3.21-3.13,9.87-9.71l4.61-4.55h-7.22a8,8,0,0,0-5.58,2.28l-9.06,8.92V571a7.34,7.34,0,0,0-7.34-7.33h0V605.4a7.34,7.34,0,0,0,7.34,7.34h0v-13l2.06-2,8.63,13.77h0a2.66,2.66,0,0,0,2.26,1.25h7.25l-2.57-4.08Z" transform="translate(-308 -413)" style="fill: url(#Gradiente_sem_nome_4-3)"/>
  </g>
  <g>
    <path d="M538.25,604h0a7.4,7.4,0,0,1-7.4,7.4H499.62V564h0a7.32,7.32,0,0,1,7.32,7.32V604Z" transform="translate(-308 -413)" style="fill: #f2f2f2"/>
    <path d="M588,575.12v-2.33H556.68a7.32,7.32,0,0,0-7.32,7.33h26.5c-5.69,5.44-14.31,13.66-25.73,24.53h0a2.77,2.77,0,0,0-.77,1.93v2l-.46.43h.46a2.4,2.4,0,0,0,2.39,2.4H580.6A7.39,7.39,0,0,0,588,604H561.38l25.83-24.6.78-.74v-3.3l.28-.27Z" transform="translate(-308 -413)" style="fill: #f2f2f2"/>
  </g>
</svg>
