<?xml version="1.0" encoding="utf-8"?>
<!-- Generator: Adobe Illustrator 24.0.1, SVG Export Plug-In . SVG Version: 6.00 Build 0)  -->
<svg version="1.1" id="Camada_1" xmlns="http://www.w3.org/2000/svg" xmlns:xlink="http://www.w3.org/1999/xlink" x="0px" y="0px"
	 viewBox="0 0 366.5 509" style="enable-background:new 0 0 366.5 509;" xml:space="preserve">
<style type="text/css">
	.st0{clip-path:url(#SVGID_2_);}
	.st1{fill:#FF720F;}
	.st2{fill:#EAEAEA;}
	.st3{font-family:'Poppins-Medium';}
	.st4{font-size:8px;}
	.st5{font-family:'Poppins-SemiBold';}
	.st6{font-size:35px;}
	.st7{opacity:0.75;}
	.st8{fill:#FFFFFF;}
	.st9{fill:#414141;}
	.st10{font-size:12px;}
	.st11{opacity:0.7;}
	.st12{opacity:0.14;}
	.st13{fill:#707070;}
	.st14{opacity:0.19;fill:#707070;enable-background:new    ;}
	.st15{font-size:16px;}
	.st16{font-family:'Poppins-Bold';}
	.st17{font-size:20px;}
</style>
<title>graphic</title>
<g>
	<defs>
		<rect id="SVGID_1_" x="-22.8" y="-25" width="412" height="566"/>
	</defs>
	<clipPath id="SVGID_2_">
		<use xlink:href="#SVGID_1_"  style="overflow:visible;"/>
	</clipPath>
	<g class="st0">
		<g id="a">
			<g>
				<path class="st1" d="M40.3,170L40.3,170c1.7,0,3,1.3,3,3v20c0,1.7-1.3,3-3,3l0,0c-1.7,0-3-1.3-3-3v-20
					C37.3,171.3,38.6,170,40.3,170z"/>
				<path class="st2" d="M196.3,126L196.3,126c1.7,0,3,1.3,3,3v64c0,1.7-1.3,3-3,3l0,0c-1.7,0-3-1.3-3-3v-64
					C193.3,127.3,194.6,126,196.3,126z"/>
				<path class="st1" d="M66.3,160L66.3,160c1.7,0,3,1.3,3,3v30c0,1.7-1.3,3-3,3l0,0c-1.7,0-3-1.3-3-3v-30
					C63.3,161.3,64.6,160,66.3,160z"/>
				<path class="st2" d="M222.3,126L222.3,126c1.7,0,3,1.3,3,3v64c0,1.7-1.3,3-3,3l0,0c-1.7,0-3-1.3-3-3v-64
					C219.3,127.3,220.6,126,222.3,126z"/>
				<path class="st1" d="M92.3,110L92.3,110c1.7,0,3,1.3,3,3v80c0,1.7-1.3,3-3,3l0,0c-1.7,0-3-1.3-3-3v-80
					C89.3,111.3,90.6,110,92.3,110z"/>
				<path class="st2" d="M248.3,126L248.3,126c1.7,0,3,1.3,3,3v64c0,1.7-1.3,3-3,3l0,0c-1.7,0-3-1.3-3-3v-64
					C245.3,127.3,246.6,126,248.3,126z"/>
				<path class="st1" d="M118.3,148L118.3,148c1.7,0,3,1.3,3,3v42c0,1.7-1.3,3-3,3l0,0c-1.7,0-3-1.3-3-3v-42
					C115.3,149.3,116.6,148,118.3,148z"/>
				<path class="st2" d="M274.3,126L274.3,126c1.7,0,3,1.3,3,3v64c0,1.7-1.3,3-3,3l0,0c-1.7,0-3-1.3-3-3v-64
					C271.3,127.3,272.6,126,274.3,126z"/>
				<path class="st1" d="M144.3,73L144.3,73c1.7,0,3,1.3,3,3v117c0,1.7-1.3,3-3,3l0,0c-1.7,0-3-1.3-3-3V76
					C141.3,74.3,142.6,73,144.3,73z"/>
				<path class="st2" d="M300.3,126L300.3,126c1.7,0,3,1.3,3,3v64c0,1.7-1.3,3-3,3l0,0c-1.7,0-3-1.3-3-3v-64
					C297.3,127.3,298.6,126,300.3,126z"/>
				<path class="st2" d="M170.3,126L170.3,126c1.7,0,3,1.3,3,3v64c0,1.7-1.3,3-3,3l0,0c-1.7,0-3-1.3-3-3v-64
					C167.3,127.3,168.6,126,170.3,126z"/>
				<path class="st2" d="M326.3,126L326.3,126c1.7,0,3,1.3,3,3v64c0,1.7-1.3,3-3,3l0,0c-1.7,0-3-1.3-3-3v-64
					C323.3,127.3,324.6,126,326.3,126z"/>
				<g>
					<text transform="matrix(6.123234e-17 -1 1 6.123234e-17 43.25 215)" class="st3 st4">Jan</text>
				</g>
				<g>
					<text transform="matrix(6.123234e-17 -1 1 6.123234e-17 199.25 215)" class="st3 st4">Jul</text>
				</g>
				<g>
					<text transform="matrix(6.123234e-17 -1 1 6.123234e-17 121.25 215)" class="st3 st4">Abr</text>
				</g>
				<g>
					<text transform="matrix(6.123234e-17 -1 1 6.123234e-17 277.25 215)" class="st3 st4">Out</text>
				</g>
				<g>
					<text transform="matrix(6.123234e-17 -1 1 6.123234e-17 69.25 215)" class="st3 st4">Fev</text>
				</g>
				<g>
					<text transform="matrix(6.123234e-17 -1 1 6.123234e-17 225.25 215)" class="st3 st4">Ago</text>
				</g>
				<g>
					<text transform="matrix(6.123234e-17 -1 1 6.123234e-17 147.25 215)" class="st3 st4">Mai</text>
				</g>
				<g>
					<text transform="matrix(6.123234e-17 -1 1 6.123234e-17 303.25 215)" class="st3 st4">Nov</text>
				</g>
				<g>
					<text transform="matrix(6.123234e-17 -1 1 6.123234e-17 95.25 215)" class="st3 st4">Mar</text>
				</g>
				<g>
					<text transform="matrix(6.123234e-17 -1 1 6.123234e-17 251.25 215)" class="st3 st4">Set</text>
				</g>
				<g>
					<text transform="matrix(6.123234e-17 -1 1 6.123234e-17 173.25 215)" class="st3 st4">Jun</text>
				</g>
				<g>
					<text transform="matrix(6.123234e-17 -1 1 6.123234e-17 329.25 215)" class="st3 st4">Dez</text>
				</g>
			</g>
			<g>
				<text transform="matrix(1 0 0 1 82.84 277)" class="st5 st6">R$ 17.685,31</text>
			</g>
			<g>
				<g class="st7">
					<path class="st8" d="M143.3,0h80c4.4,0,8,3.6,8,8v14c0,4.4-3.6,8-8,8h-80c-4.4,0-8-3.6-8-8V8C135.3,3.6,138.8,0,143.3,0z"/>
					<path class="st1" d="M143.3,1c-3.9,0-7,3.1-7,7v14c0,3.9,3.1,7,7,7h80c3.9,0,7-3.1,7-7V8c0-3.9-3.1-7-7-7H143.3 M143.3,0h80
						c4.4,0,8,3.6,8,8v14c0,4.4-3.6,8-8,8h-80c-4.4,0-8-3.6-8-8V8C135.3,3.6,138.8,0,143.3,0z"/>
				</g>
				<g>
					<text transform="matrix(1 0 0 1 151.13 20)" class="st9 st5 st10">Renda fixa</text>
				</g>
			</g>
			<g>
				<g class="st11">
					<g class="st12">
						<path class="st8" d="M10,304h345c5.5,0,10,4.5,10,10v185c0,5.5-4.5,10-10,10H10c-5.5,0-10-4.5-10-10V314
							C0,308.5,4.5,304,10,304z"/>
						<path class="st13" d="M10,305c-5,0-9,4-9,9v185c0,5,4,9,9,9h345c5,0,9-4,9-9V314c0-5-4-9-9-9H10 M10,304h345
							c5.5,0,10,4.5,10,10v185c0,5.5-4.5,10-10,10H10c-5.5,0-10-4.5-10-10V314C0,308.5,4.5,304,10,304z"/>
					</g>
					<path class="st14" d="M365.5,352H0.5v-1h365V352z"/>
					<path class="st14" d="M366.5,436H1.5v-1h365V436z"/>
				</g>
				<g>
					<g>
						<text transform="matrix(1 0 0 1 18.99 335)" class="st9 st5 st15">Detalhes</text>
					</g>
					<g>
						<text transform="matrix(1 0 0 1 19 394)" class="st9 st16 st17">2,98%</text>
					</g>
					<g>
						<text transform="matrix(1 0 0 1 19 468)" class="st9 st16 st17">+ R$ 1.135,22</text>
					</g>
					<g>
						<text transform="matrix(1 0 0 1 19 492)" class="st9 st3 st10">Seu rendimento</text>
					</g>
					<g>
						<text transform="matrix(1 0 0 1 19 418)" class="st9 st3 st10">Performance</text>
					</g>
				</g>
			</g>
		</g>
	</g>
</g>
</svg>
